<svg width="328" height="328" viewBox="0 0 328 328" fill="none" xmlns="http://www.w3.org/2000/svg">
<path d="M164 0C254.575 0 328 73.4253 328 164C328 254.575 254.575 328 164 328C73.4253 328 0 254.575 0 164C0 73.4253 73.4253 0 164 0ZM198.981 110.895C191.103 107.882 183.92 108.361 179.896 108.924C171.847 110.05 164.113 113.4 158.273 116.27L142.749 123.899L127.225 131.528C123.207 133.503 118.603 136.174 114.366 139.845C110.236 143.423 104.765 149.422 102.028 158.32C95.2168 180.467 110.344 195.457 116.955 200.575L127.599 208.815L138.241 217.055C144.947 222.246 156.646 228.941 171.538 226.858C187.135 224.677 196.616 214.308 201.541 206.44L208.215 195.779L214.89 185.117C217.904 180.301 220.935 174.61 222.855 168.366C224.689 162.403 226.473 152.792 222.854 142.28L221.062 137.072L219.269 131.863C215.879 122.019 208.403 114.498 198.981 110.895Z" fill="#222222"/>
</svg>
